<svg width="400" height="400" viewBox="0 0 400 400" fill="none" xmlns="http://www.w3.org/2000/svg">
    <path d="M181.258 70H76.4453C69.7129 70 64.2578 77.6931 64.2578 87.1875V125H181.258V70Z" fill="#CEDFFF" />
    <path fill-rule="evenodd" clip-rule="evenodd" d="M60.2578 87C60.2578 75.1259 69.8837 65.5 81.7578 65.5H178.758C180.691 65.5 182.258 67.067 182.258 69C182.258 70.933 180.691 72.5 178.758 72.5H81.7578C73.7497 72.5 67.2578 78.9919 67.2578 87V329.5C67.2578 337.508 73.7497 344 81.7578 344H178.258C180.191 344 181.758 345.567 181.758 347.5C181.758 349.433 180.191 351 178.258 351H81.7578C69.8837 351 60.2578 341.374 60.2578 329.5V87Z" fill="#367FEE" />
    <path fill-rule="evenodd" clip-rule="evenodd" d="M60.7578 180C60.7578 178.067 62.3248 176.5 64.2578 176.5H178.258C180.191 176.5 181.758 178.067 181.758 180C181.758 181.933 180.191 183.5 178.258 183.5H64.2578C62.3248 183.5 60.7578 181.933 60.7578 180Z" fill="#367FEE" />
    <path fill-rule="evenodd" clip-rule="evenodd" d="M60.7578 237C60.7578 235.067 62.3248 233.5 64.2578 233.5H178.258C180.191 233.5 181.758 235.067 181.758 237C181.758 238.933 180.191 240.5 178.258 240.5H64.2578C62.3248 240.5 60.7578 238.933 60.7578 237Z" fill="#367FEE" />
    <path fill-rule="evenodd" clip-rule="evenodd" d="M60.7578 293C60.7578 291.067 62.3248 289.5 64.2578 289.5H178.258C180.191 289.5 181.758 291.067 181.758 293C181.758 294.933 180.191 296.5 178.258 296.5H64.2578C62.3248 296.5 60.7578 294.933 60.7578 293Z" fill="#367FEE" />
    <path fill-rule="evenodd" clip-rule="evenodd" d="M147.258 347.5C145.325 347.5 143.758 345.933 143.758 344V127C143.758 125.067 145.325 123.5 147.258 123.5C149.191 123.5 150.758 125.067 150.758 127V344C150.758 345.933 149.191 347.5 147.258 347.5Z" fill="#367FEE" />
    <path fill-rule="evenodd" clip-rule="evenodd" d="M60.7578 125C60.7578 123.067 62.3248 121.5 64.2578 121.5H178.258C180.191 121.5 181.758 123.067 181.758 125C181.758 126.933 180.191 128.5 178.258 128.5H64.2578C62.3248 128.5 60.7578 126.933 60.7578 125Z" fill="#367FEE" />
    <path d="M98.9176 20.8725H71.0915C69.1715 20.8725 67.6133 19.3143 67.6133 17.3943C67.6133 15.4743 69.1715 13.916 71.0915 13.916H98.9176C100.838 13.916 102.396 15.4743 102.396 17.3943C102.396 19.3143 100.838 20.8725 98.9176 20.8725Z" fill="#367FEE" />
    <path d="M85.0076 34.7826C83.0876 34.7826 81.5293 33.2243 81.5293 31.3043V3.47826C81.5293 1.55826 83.0876 0 85.0076 0C86.9276 0 88.4858 1.55826 88.4858 3.47826V31.3043C88.4858 33.2243 86.9276 34.7826 85.0076 34.7826Z" fill="#367FEE" />
    <path d="M36.3043 76.521H8.47826C6.55826 76.521 5 74.9627 5 73.0427C5 71.1227 6.55826 69.5645 8.47826 69.5645H36.3043C38.2243 69.5645 39.7826 71.1227 39.7826 73.0427C39.7826 74.9627 38.2243 76.521 36.3043 76.521Z" fill="#367FEE" />
    <path d="M22.3943 90.4379C20.4743 90.4379 18.916 88.8796 18.916 86.9596V59.1335C18.916 57.2135 20.4743 55.6553 22.3943 55.6553C24.3143 55.6553 25.8725 57.2135 25.8725 59.1335V86.9596C25.8725 88.8796 24.3143 90.4379 22.3943 90.4379Z" fill="#367FEE" />
    <path d="M231.258 68H351.258V84H231.258V68Z" fill="#367FEE" />
    <path d="M346.606 88.545H236.037C230.658 88.545 226.281 84.167 226.281 78.7885V72.2844C226.281 66.9056 230.658 62.5283 236.037 62.5283H346.606C351.985 62.5283 356.363 66.9056 356.363 72.2844V78.7885C356.363 84.167 351.985 88.545 346.606 88.545ZM236.037 69.0324C234.249 69.0324 232.785 70.4893 232.785 72.2844V78.7885C232.785 80.584 234.249 82.041 236.037 82.041H346.606C348.395 82.041 349.858 80.584 349.858 78.7885V72.2844C349.858 70.4893 348.395 69.0324 346.606 69.0324H236.037Z" fill="#367FEE" />
    <path d="M346.606 206.016H236.037C230.658 206.016 226.281 201.639 226.281 196.26V189.756C226.281 184.377 230.658 180 236.037 180H346.606C351.985 180 356.363 184.377 356.363 189.756V196.26C356.363 201.639 351.985 206.016 346.606 206.016ZM236.037 186.504C234.249 186.504 232.785 187.961 232.785 189.756V196.26C232.785 198.055 234.249 199.512 236.037 199.512H346.606C348.395 199.512 349.858 198.055 349.858 196.26V189.756C349.858 187.961 348.395 186.504 346.606 186.504H236.037Z" fill="#367FEE" />
    <path d="M346.606 147.082H236.037C230.658 147.082 226.281 142.704 226.281 137.326V130.822C226.281 125.443 230.658 121.065 236.037 121.065H346.606C351.985 121.065 356.363 125.443 356.363 130.822V137.326C356.363 142.704 351.985 147.082 346.606 147.082ZM236.037 127.569C234.249 127.569 232.785 129.026 232.785 130.822V137.326C232.785 139.121 234.249 140.578 236.037 140.578H346.606C348.395 140.578 349.858 139.121 349.858 137.326V130.822C349.858 129.026 348.395 127.569 346.606 127.569H236.037Z" fill="#367FEE" />
    <path d="M346.606 264.553H236.037C230.658 264.553 226.281 260.176 226.281 254.797V248.293C226.281 242.914 230.658 238.537 236.037 238.537H346.606C351.985 238.537 356.363 242.914 356.363 248.293V254.797C356.363 260.176 351.985 264.553 346.606 264.553ZM236.037 245.041C234.249 245.041 232.785 246.498 232.785 248.293V254.797C232.785 256.592 234.249 258.049 236.037 258.049H346.606C348.395 258.049 349.858 256.592 349.858 254.797V248.293C349.858 246.498 348.395 245.041 346.606 245.041H236.037Z" fill="#367FEE" />
    <path d="M375.876 374.724H206.77C196.012 374.724 187.258 365.969 187.258 355.211V36.5122C187.258 25.7545 196.012 17 206.77 17H375.876C386.633 17 395.388 25.7545 395.388 36.5122V355.211C395.388 365.969 386.633 374.724 375.876 374.724ZM206.77 23.5041C199.596 23.5041 193.762 29.3382 193.762 36.5122V355.211C193.762 362.385 199.596 368.22 206.77 368.22H375.876C383.05 368.22 388.884 362.385 388.884 355.211V36.5122C388.884 29.3382 383.05 23.5041 375.876 23.5041H206.77Z" fill="#367FEE" />
    <path d="M231.258 126H351.258V142H231.258V126Z" fill="#367FEE" />
    <path d="M372.624 320C370.829 320 369.372 321.457 369.372 323.252V342.764C369.372 344.56 367.908 346.016 366.12 346.016H346.607C344.812 346.016 343.355 347.473 343.355 349.268C343.355 351.064 344.812 352.521 346.607 352.521H366.12C371.499 352.521 375.876 348.143 375.876 342.764V323.252C375.876 321.457 374.419 320 372.624 320Z" fill="#CEDFFF" />
    <path d="M220.477 398.957H227.434C229.354 398.957 230.912 397.398 230.912 395.478C230.912 393.558 229.354 392 227.434 392H220.477C218.557 392 216.999 393.558 216.999 395.478C216.999 397.398 218.557 398.957 220.477 398.957Z" fill="#367FEE" />
    <path d="M241.356 398.957H352.66C354.58 398.957 356.139 397.398 356.139 395.478C356.139 393.558 354.58 392 352.66 392H241.356C239.436 392 237.878 393.558 237.878 395.478C237.878 397.398 239.436 398.957 241.356 398.957Z" fill="#367FEE" />
</svg>
    