<svg width="8" height="8" viewBox="0 0 8 8" fill="none" xmlns="http://www.w3.org/2000/svg">
    <path d="M4.9375 0.953125C6.10248 0.953125 7.04688 1.89752 7.04688 3.0625C7.04688 4.22748 6.10248 5.17188 4.9375 5.17188C4.65965 5.17188 4.39439 5.11804 4.15146 5.02042L3.53125 5.64062H3.0625V6.34375H2.35938V7.04688H0.953125V5.64062L2.91861 3.67514C2.85846 3.47649 2.82797 3.27005 2.82812 3.0625C2.82813 1.89752 3.77252 0.953125 4.9375 0.953125ZM4.9375 0.25C3.38425 0.25 2.125 1.50909 2.125 3.0625C2.125 3.19187 2.13382 3.32065 2.15135 3.44802L0.352964 5.24641C0.287041 5.31234 0.250005 5.40176 0.25 5.495L0.25 7.39844C0.25 7.5926 0.407397 7.75 0.601562 7.75H2.71094C2.9051 7.75 3.0625 7.5926 3.0625 7.39844V7.04688H3.41406C3.60823 7.04688 3.76562 6.88948 3.76562 6.69531V6.40234L4.35228 5.81396C4.54355 5.85455 4.73917 5.875 4.9375 5.875C6.49075 5.875 7.75 4.61591 7.75 3.0625C7.75 1.50925 6.49091 0.25 4.9375 0.25ZM4.9375 2.35938C4.9375 2.74771 5.25229 3.0625 5.64062 3.0625C6.02896 3.0625 6.34375 2.74771 6.34375 2.35938C6.34375 1.97104 6.02896 1.65625 5.64062 1.65625C5.25229 1.65625 4.9375 1.97104 4.9375 2.35938Z" fill="#1E69FD" />
</svg>
    