<svg width="48" height="48" viewBox="0 0 48 48" fill="none" xmlns="http://www.w3.org/2000/svg">
    <path d="M45.2865 42.1562H9.39082C8.01009 42.1562 6.88647 41.0326 6.88647 39.6519V15.0258C6.88647 14.7954 7.07347 14.6084 7.30387 14.6084H47.3734C47.6038 14.6084 47.7908 14.7954 47.7908 15.0258V39.6519C47.7908 41.0326 46.6672 42.1562 45.2865 42.1562ZM7.72126 15.4432V39.6519C7.72126 40.5726 8.47006 41.3214 9.39082 41.3214H45.2865C46.2073 41.3214 46.9561 40.5726 46.9561 39.6519V15.4432H7.72126Z" fill="#367FEE" />
    <path d="M45.2877 8.34766H27.3398V15.0259H47.3746V10.4346C47.3746 9.28178 46.4405 8.34766 45.2877 8.34766Z" fill="#367FEE" />
    <path d="M47.3743 15.4437H27.3395C27.1091 15.4437 26.9221 15.2567 26.9221 15.0263V8.34806C26.9221 8.11766 27.1091 7.93066 27.3395 7.93066H45.2873C46.668 7.93066 47.7917 9.05428 47.7917 10.435V15.0263C47.7917 15.2567 47.6047 15.4437 47.3743 15.4437ZM27.7569 14.6089H46.9569V10.435C46.9569 9.51425 46.2081 8.76545 45.2873 8.76545H27.7569V14.6089Z" fill="#367FEE" />
    <path d="M27.3395 8.34766H9.39164C8.23881 8.34766 7.30469 9.28178 7.30469 10.4346V15.0259H27.3395V8.34766Z" fill="#CEDFFF" />
    <path d="M27.3386 15.4437H7.30387C7.07347 15.4437 6.88647 15.2567 6.88647 15.0263V10.435C6.88647 9.05428 8.01009 7.93066 9.39082 7.93066H27.3386C27.569 7.93066 27.756 8.11766 27.756 8.34806V15.0263C27.756 15.2567 27.569 15.4437 27.3386 15.4437ZM7.72126 14.6089H26.9212V8.76545H9.39082C8.47006 8.76545 7.72126 9.51425 7.72126 10.435V14.6089Z" fill="#367FEE" />
    <path d="M27.3393 42.1572C27.1089 42.1572 26.9219 41.9702 26.9219 41.7398V15.0268C26.9219 14.7964 27.1089 14.6094 27.3393 14.6094C27.5697 14.6094 27.7567 14.7964 27.7567 15.0268V41.7398C27.7567 41.9702 27.5697 42.1572 27.3393 42.1572Z" fill="#367FEE" />
    <path d="M47.3734 22.1219H7.30387C7.07347 22.1219 6.88647 21.9349 6.88647 21.7045C6.88647 21.4741 7.07347 21.2871 7.30387 21.2871H47.3734C47.6038 21.2871 47.7908 21.4741 47.7908 21.7045C47.7908 21.9349 47.6038 22.1219 47.3734 22.1219Z" fill="#367FEE" />
    <path d="M47.3734 28.8006H7.30387C7.07347 28.8006 6.88647 28.6136 6.88647 28.3832C6.88647 28.1528 7.07347 27.9658 7.30387 27.9658H47.3734C47.6038 27.9658 47.7908 28.1528 47.7908 28.3832C47.7908 28.6136 47.6038 28.8006 47.3734 28.8006Z" fill="#367FEE" />
    <path d="M47.3734 35.4783H7.30387C7.07347 35.4783 6.88647 35.2913 6.88647 35.0609C6.88647 34.8305 7.07347 34.6436 7.30387 34.6436H47.3734C47.6038 34.6436 47.7908 34.8305 47.7908 35.0609C47.7908 35.2913 47.6038 35.4783 47.3734 35.4783Z" fill="#367FEE" />
    <path d="M38.7 48.0001C41.848 48.0001 44.4 45.4481 44.4 42.3001C44.4 39.1521 41.848 36.6001 38.7 36.6001C35.552 36.6001 33 39.1521 33 42.3001C33 45.4481 35.552 48.0001 38.7 48.0001Z" fill="#CEDFFF" />
    <path d="M37.6975 44.4001C37.5961 44.4001 37.4993 44.3597 37.4276 44.2889L35.2714 42.1346C35.1228 41.9861 35.1228 41.7447 35.2714 41.5962C35.42 41.4477 35.6616 41.4477 35.8103 41.5962L37.6967 43.481L41.4696 39.7115C41.6182 39.563 41.8598 39.563 42.0084 39.7115C42.1571 39.86 42.1571 40.1014 42.0084 40.2499L37.9665 44.2889C37.8956 44.3597 37.7988 44.4001 37.6975 44.4001Z" fill="#012C80" />
    <path d="M11.4792 2.5047H8.14005C7.90965 2.5047 7.72266 2.31771 7.72266 2.08731C7.72266 1.85691 7.90965 1.66992 8.14005 1.66992H11.4792C11.7096 1.66992 11.8966 1.85691 11.8966 2.08731C11.8966 2.31771 11.7096 2.5047 11.4792 2.5047Z" fill="#367FEE" />
    <path d="M9.80997 4.17391C9.57957 4.17391 9.39258 3.98692 9.39258 3.75652V0.417391C9.39258 0.186991 9.57957 0 9.80997 0C10.0404 0 10.2274 0.186991 10.2274 0.417391V3.75652C10.2274 3.98692 10.0404 4.17391 9.80997 4.17391Z" fill="#367FEE" />
    <path d="M3.9655 9.18244H0.626376C0.395976 9.18244 0.208984 8.99545 0.208984 8.76505C0.208984 8.53465 0.395976 8.34766 0.626376 8.34766H3.9655C4.1959 8.34766 4.3829 8.53465 4.3829 8.76505C4.3829 8.99545 4.1959 9.18244 3.9655 9.18244Z" fill="#367FEE" />
    <path d="M2.2963 10.8526C2.0659 10.8526 1.87891 10.6656 1.87891 10.4352V7.0961C1.87891 6.8657 2.0659 6.67871 2.2963 6.67871C2.5267 6.67871 2.71369 6.8657 2.71369 7.0961V10.4352C2.71369 10.6656 2.5267 10.8526 2.2963 10.8526Z" fill="#367FEE" />
    <path d="M9.80882 46.3306H8.97403C8.74363 46.3306 8.55664 46.1436 8.55664 45.9132C8.55664 45.6828 8.74363 45.4958 8.97403 45.4958H9.80882C10.0392 45.4958 10.2262 45.6828 10.2262 45.9132C10.2262 46.1436 10.0392 46.3306 9.80882 46.3306Z" fill="#367FEE" />
    <path d="M24.8347 46.3306H11.4782C11.2478 46.3306 11.0608 46.1436 11.0608 45.9132C11.0608 45.6828 11.2478 45.4958 11.4782 45.4958H24.8347C25.0651 45.4958 25.2521 45.6828 25.2521 45.9132C25.2521 46.1436 25.0651 46.3306 24.8347 46.3306Z" fill="#367FEE" />
    <path d="M45.7051 4.59161H44.8703C44.6399 4.59161 44.4529 4.40462 44.4529 4.17423C44.4529 3.94383 44.6399 3.75684 44.8703 3.75684H45.7051C45.9355 3.75684 46.1224 3.94383 46.1224 4.17423C46.1224 4.40462 45.9355 4.59161 45.7051 4.59161Z" fill="#367FEE" />
    <path d="M43.1999 4.59161H29.8434C29.613 4.59161 29.426 4.40462 29.426 4.17423C29.426 3.94383 29.613 3.75684 29.8434 3.75684H43.1999C43.4303 3.75684 43.6173 3.94383 43.6173 4.17423C43.6173 4.40462 43.4303 4.59161 43.1999 4.59161Z" fill="#367FEE" />
</svg>
    