<svg width="400" height="400" viewBox="0 0 400 400" fill="none" xmlns="http://www.w3.org/2000/svg">
    <g clip-path="url(#clip0)">
        <path d="M241.193 14C241.193 8.47715 236.716 4 231.193 4H169.193C163.671 4 159.193 8.47715 159.193 14V96C159.193 101.523 163.671 106 169.193 106H231.193C236.716 106 241.193 101.523 241.193 96V14Z" fill="#367FEE" />
        <path fill-rule="evenodd" clip-rule="evenodd" d="M74 248H200C201.657 248 203 246.657 203 245C203 243.343 201.657 242 200 242H71.5C69.567 242 68 243.567 68 245.5V293C68 294.657 69.3431 296 71 296C72.6569 296 74 294.657 74 293V248Z" fill="#367FEE" />
        <path fill-rule="evenodd" clip-rule="evenodd" d="M326 152H200C198.343 152 197 153.343 197 155C197 156.657 198.343 158 200 158H328.5C330.433 158 332 156.433 332 154.5V107C332 105.343 330.657 104 329 104C327.343 104 326 105.343 326 107V152Z" fill="#367FEE" />
        <path d="M200.225 248.385C202.006 248.385 203.451 246.94 203.451 245.16V154.837C203.451 153.056 202.006 151.611 200.225 151.611C198.445 151.611 197 153.056 197 154.837V245.16C197 246.94 198.445 248.385 200.225 248.385Z" fill="#367FEE" />
        <path d="M293.542 109.677H364.51C369.846 109.677 374.188 105.335 374.188 100V9.67742C374.188 4.34194 369.846 0 364.51 0H293.542C288.207 0 283.865 4.34194 283.865 9.67742V100C283.865 105.335 288.207 109.677 293.542 109.677ZM364.51 6.45161C366.291 6.45161 367.736 7.90323 367.736 9.67742V100C367.736 101.774 366.291 103.226 364.51 103.226H293.542C291.762 103.226 290.317 101.774 290.317 100V9.67742C290.317 7.90323 291.762 6.45161 293.542 6.45161H364.51Z" fill="#367FEE" />
        <path d="M308.061 38.7104H349.997C351.777 38.7104 353.223 37.2652 353.223 35.4846C353.223 33.7039 351.777 32.2588 349.997 32.2588H308.061C306.281 32.2588 304.836 33.7039 304.836 35.4846C304.836 37.2652 306.281 38.7104 308.061 38.7104Z" fill="#367FEE" />
        <path d="M308.061 58.0629H349.997C351.777 58.0629 353.223 56.6178 353.223 54.8371C353.223 53.0565 351.777 51.6113 349.997 51.6113H308.061C306.281 51.6113 304.836 53.0565 304.836 54.8371C304.836 56.6178 306.281 58.0629 308.061 58.0629Z" fill="#367FEE" />
        <path d="M329.037 170.97C320.129 170.97 312.908 163.749 312.908 154.841C312.908 145.933 320.129 138.712 329.037 138.712C337.945 138.712 345.166 145.933 345.166 154.841C345.166 163.749 337.945 170.97 329.037 170.97Z" fill="#367FEE" />
        <path d="M329.034 174.191C339.705 174.191 348.389 165.507 348.389 154.836C348.389 144.165 339.705 135.481 329.034 135.481C318.363 135.481 309.679 144.165 309.679 154.836C309.679 165.507 318.363 174.191 329.034 174.191ZM329.034 141.933C336.15 141.933 341.937 147.72 341.937 154.836C341.937 161.952 336.15 167.74 329.034 167.74C321.918 167.74 316.131 161.952 316.131 154.836C316.131 147.72 321.918 141.933 329.034 141.933Z" fill="#367FEE" />
        <path d="M199.997 158.061C201.777 158.061 203.223 156.616 203.223 154.836V106.448C203.223 104.668 201.777 103.223 199.997 103.223C198.216 103.223 196.771 104.668 196.771 106.448V154.836C196.771 156.616 198.216 158.061 199.997 158.061Z" fill="#367FEE" />
        <path d="M200 170.97C191.092 170.97 183.871 163.749 183.871 154.841C183.871 145.933 191.092 138.712 200 138.712C208.908 138.712 216.129 145.933 216.129 154.841C216.129 163.749 208.908 170.97 200 170.97Z" fill="#367FEE" />
        <path d="M199.997 174.192C210.668 174.192 219.352 165.508 219.352 154.837C219.352 144.166 210.668 135.482 199.997 135.482C189.326 135.482 180.642 144.166 180.642 154.837C180.642 165.508 189.326 174.192 199.997 174.192ZM199.997 141.934C207.113 141.934 212.9 147.721 212.9 154.837C212.9 161.953 207.113 167.74 199.997 167.74C192.881 167.74 187.094 161.953 187.094 154.837C187.094 147.721 192.881 141.934 199.997 141.934Z" fill="#367FEE" />
        <path d="M164.677 109.677H235.645C240.98 109.677 245.322 105.335 245.322 100V9.67742C245.322 4.34194 240.98 0 235.645 0H164.677C159.342 0 155 4.34194 155 9.67742V100C155 105.335 159.342 109.677 164.677 109.677ZM235.645 6.45161C237.419 6.45161 238.871 7.90323 238.871 9.67742V100C238.871 101.774 237.419 103.226 235.645 103.226H164.677C162.903 103.226 161.451 101.774 161.451 100V9.67742C161.451 7.90323 162.903 6.45161 164.677 6.45161H235.645Z" fill="#367FEE" />
        <path d="M179.183 38.7104H221.118C222.899 38.7104 224.344 37.2652 224.344 35.4846C224.344 33.7039 222.899 32.2588 221.118 32.2588H179.183C177.402 32.2588 175.957 33.7039 175.957 35.4846C175.957 37.2652 177.402 38.7104 179.183 38.7104Z" fill="#CEDFFF" />
        <path d="M179.183 58.0629H221.118C222.899 58.0629 224.344 56.6178 224.344 54.8371C224.344 53.0565 222.899 51.6113 221.118 51.6113H179.183C177.402 51.6113 175.957 53.0565 175.957 54.8371C175.957 56.6178 177.402 58.0629 179.183 58.0629Z" fill="#CEDFFF" />
        <path d="M35.4838 400.002H106.451C111.787 400.002 116.129 395.66 116.129 390.324V300.002C116.129 294.666 111.787 290.324 106.451 290.324H35.4838C30.1483 290.324 25.8063 294.666 25.8063 300.002V390.324C25.8063 395.66 30.1483 400.002 35.4838 400.002ZM106.451 296.776C108.226 296.776 109.677 298.227 109.677 300.002V390.324C109.677 392.098 108.226 393.55 106.451 393.55H35.4838C33.7096 393.55 32.2579 392.098 32.2579 390.324V300.002C32.2579 298.227 33.7096 296.776 35.4838 296.776H106.451Z" fill="#367FEE" />
        <path d="M50.0028 367.74H91.9383C93.7189 367.74 95.1641 366.295 95.1641 364.514C95.1641 362.733 93.7189 361.288 91.9383 361.288H50.0028C48.2222 361.288 46.777 362.733 46.777 364.514C46.777 366.295 48.2222 367.74 50.0028 367.74Z" fill="#023DB3" />
        <path d="M50.0028 348.387H91.9383C93.7189 348.387 95.1641 346.942 95.1641 345.161C95.1641 343.381 93.7189 341.936 91.9383 341.936H50.0028C48.2222 341.936 46.777 343.381 46.777 345.161C46.777 346.942 48.2222 348.387 50.0028 348.387Z" fill="#508AFD" />
        <path d="M70.9647 261.294C62.0569 261.294 54.8357 254.073 54.8357 245.165C54.8357 236.257 62.0569 229.036 70.9647 229.036C79.8725 229.036 87.0938 236.257 87.0938 245.165C87.0938 254.073 79.8725 261.294 70.9647 261.294Z" fill="#9CBDFE" />
        <path d="M70.9772 264.515C81.6482 264.515 90.332 255.831 90.332 245.16C90.332 234.49 81.6482 225.806 70.9772 225.806C60.3062 225.806 51.6224 234.49 51.6224 245.16C51.6224 255.831 60.3062 264.515 70.9772 264.515ZM70.9772 232.257C78.0933 232.257 83.8804 238.044 83.8804 245.16C83.8804 252.277 78.0933 258.064 70.9772 258.064C63.8611 258.064 58.074 252.277 58.074 245.16C58.074 238.044 63.8611 232.257 70.9772 232.257Z" fill="#367FEE" />
        <path d="M164.521 400.001H235.489C240.824 400.001 245.166 395.659 245.166 390.323V300.001C245.166 294.665 240.824 290.323 235.489 290.323H164.521C159.185 290.323 154.843 294.665 154.843 300.001V390.323C154.843 395.659 159.185 400.001 164.521 400.001ZM235.489 296.775C237.269 296.775 238.714 298.226 238.714 300.001V390.323C238.714 392.097 237.269 393.549 235.489 393.549H164.521C162.747 393.549 161.295 392.097 161.295 390.323V300.001C161.295 298.226 162.747 296.775 164.521 296.775H235.489Z" fill="#367FEE" />
        <path d="M179.04 367.74H220.975C222.756 367.74 224.201 366.295 224.201 364.514C224.201 362.733 222.756 361.288 220.975 361.288H179.04C177.259 361.288 175.814 362.733 175.814 364.514C175.814 366.295 177.259 367.74 179.04 367.74Z" fill="#508AFD" />
        <path d="M179.04 348.387H220.975C222.756 348.387 224.201 346.942 224.201 345.161C224.201 343.381 222.756 341.936 220.975 341.936H179.04C177.259 341.936 175.814 343.381 175.814 345.161C175.814 346.942 177.259 348.387 179.04 348.387Z" fill="#508AFD" />
        <path d="M199.997 296.774C201.777 296.774 203.223 295.329 203.223 293.548V245.161C203.223 243.381 201.777 241.936 199.997 241.936C198.216 241.936 196.771 243.381 196.771 245.161V293.548C196.771 295.329 198.216 296.774 199.997 296.774Z" fill="#367FEE" />
        <path d="M200 261.294C191.092 261.294 183.871 254.073 183.871 245.165C183.871 236.257 191.092 229.036 200 229.036C208.908 229.036 216.129 236.257 216.129 245.165C216.129 254.073 208.908 261.294 200 261.294Z" fill="#CEDFFF" />
        <path d="M199.999 264.515C210.67 264.515 219.354 255.831 219.354 245.16C219.354 234.49 210.67 225.806 199.999 225.806C189.328 225.806 180.644 234.49 180.644 245.16C180.644 255.831 189.328 264.515 199.999 264.515ZM199.999 232.257C207.115 232.257 212.902 238.044 212.902 245.16C212.902 252.277 207.115 258.064 199.999 258.064C192.883 258.064 187.095 252.277 187.095 245.16C187.095 238.044 192.883 232.257 199.999 232.257Z" fill="#367FEE" />
        <path d="M121.304 151.866H93.4783C91.5583 151.866 90 150.307 90 148.387C90 146.467 91.5583 144.909 93.4783 144.909H121.304C123.224 144.909 124.783 146.467 124.783 148.387C124.783 150.307 123.224 151.866 121.304 151.866Z" fill="#367FEE" />
        <path d="M278.479 266.917H306.305C308.225 266.917 309.783 268.475 309.783 270.395C309.783 272.315 308.225 273.873 306.305 273.873H278.479C276.559 273.873 275.001 272.315 275.001 270.395C275.001 268.475 276.559 266.917 278.479 266.917Z" fill="#367FEE" />
        <path d="M107.394 165.783C105.474 165.783 103.916 164.224 103.916 162.304V134.478C103.916 132.558 105.474 131 107.394 131C109.314 131 110.873 132.558 110.873 134.478V162.304C110.873 164.224 109.314 165.783 107.394 165.783Z" fill="#367FEE" />
        <path d="M292.389 253C294.309 253 295.867 254.558 295.867 256.478V284.304C295.867 286.224 294.309 287.782 292.389 287.782C290.469 287.782 288.911 286.224 288.911 284.304V256.478C288.911 254.558 290.469 253 292.389 253Z" fill="#367FEE" />
        <path d="M114.193 77.2992H107.894C106.155 77.2992 104.744 75.8882 104.744 74.1496C104.744 72.411 106.155 71 107.894 71H114.193C115.932 71 117.343 72.411 117.343 74.1496C117.343 75.8882 115.932 77.2992 114.193 77.2992Z" fill="#367FEE" />
        <path d="M285.59 341.483H291.889C293.628 341.483 295.039 342.894 295.039 344.633C295.039 346.371 293.628 347.782 291.889 347.782H285.59C283.852 347.782 282.441 346.371 282.441 344.633C282.441 342.894 283.852 341.483 285.59 341.483Z" fill="#367FEE" />
        <path d="M95.2913 77.2992H29.1496C27.411 77.2992 26 75.8882 26 74.1496C26 72.411 27.411 71 29.1496 71H95.2913C97.0299 71 98.4409 72.411 98.4409 74.1496C98.4409 75.8882 97.0299 77.2992 95.2913 77.2992Z" fill="#367FEE" />
        <path d="M304.492 341.483H370.634C372.372 341.483 373.783 342.894 373.783 344.633C373.783 346.371 372.372 347.782 370.634 347.782H304.492C302.753 347.782 301.342 346.371 301.342 344.633C301.342 342.894 302.753 341.483 304.492 341.483Z" fill="#367FEE" />
    </g>
    <defs>
        <clipPath id="clip0">
            <rect width="400" height="400" transform="matrix(-1 0 0 1 400 0)" fill="white" />
        </clipPath>
    </defs>
</svg>
    