
<svg width="12" height="10" viewBox="0 0 12 10" fill="none" xmlns="http://www.w3.org/2000/svg">
    <path fill-rule="evenodd" clip-rule="evenodd" d="M9.43182 0.909091H1.81818C1.3161 0.909091 0.909091 1.3161 0.909091 1.81818V8.18182C0.909091 8.6839 1.3161 9.09091 1.81818 9.09091H9.43182C9.9339 9.09091 10.3409 8.6839 10.3409 8.18182V1.81818C10.3409 1.3161 9.9339 0.909091 9.43182 0.909091ZM1.81818 0C0.814028 0 0 0.814028 0 1.81818V8.18182C0 9.18597 0.814028 10 1.81818 10H9.43182C10.436 10 11.25 9.18597 11.25 8.18182V1.81818C11.25 0.814028 10.436 0 9.43182 0H1.81818Z" fill="#555555"/>
    <path fill-rule="evenodd" clip-rule="evenodd" d="M9.43182 0.909091H1.81818C1.3161 0.909091 0.909091 1.3161 0.909091 1.81818V8.18182C0.909091 8.6839 1.3161 9.09091 1.81818 9.09091H9.43182C9.9339 9.09091 10.3409 8.6839 10.3409 8.18182V1.81818C10.3409 1.3161 9.9339 0.909091 9.43182 0.909091ZM1.81818 0C0.814028 0 0 0.814028 0 1.81818V8.18182C0 9.18597 0.814028 10 1.81818 10H9.43182C10.436 10 11.25 9.18597 11.25 8.18182V1.81818C11.25 0.814028 10.436 0 9.43182 0H1.81818Z" fill="#555555"/>
    <path d="M0 1.81818C0 0.814028 0.814028 0 1.81818 0H9.43182C10.436 0 11.25 0.814028 11.25 1.81818V2.5H0V1.81818Z" fill="#555555"/>
    <rect x="2.99994" y="2.5" width="2.22222" height="6.58889" fill="#555555"/>
    </svg>
    